#!OML:ASF E:\Style4\Style4.ASF
:FULLY-SPECIFIED
:DEGREES
2872
root 0.75106 17.3345 -1.36323 4.92935 -13.0637 4.5402
lowerback 16.326 3.08731 -0.868646
upperback 10.1367 3.82973 -1.12496
thorax 1.67999 1.88396 -1.24415
lowerneck 5.66769 -4.77258 -4.17892
upperneck 1.55018 -6.5703 3.72595
head -0.199088 -3.3262 1.97967
rclavicle 1.27222e-014 -3.49861e-014
rhumerus 31.1788 4.33973 -77.9816
rradius 124.392
rwrist 11.6586
rhand 16.334 -3.28577
rfingers 7.12502
rthumb 41.1059 -28.1684
lclavicle 1.27222e-014 -3.49861e-014
lhumerus 39.2634 -15.3554 73.5401
lradius 125.972
lwrist -11.349
lhand 19.6947 38.3524
lfingers 7.12502
lthumb 44.2506 62.1412
rfemur -32.3438 1.86286 11.924
rtibia 45.8516
rfoot -17.2583 -13.9894
rtoes -15.9906
lfemur -27.1121 10.1265 -27.1519
ltibia 43.093
lfoot -24.6146 14.4337
ltoes -6.88712
2873
root 0.749097 17.3074 -1.37496 4.76124 -13.061 4.54343
lowerback 16.4518 3.10581 -0.922589
upperback 10.1867 3.84368 -1.12585
thorax 1.66577 1.8883 -1.22236
lowerneck 5.48902 -4.76036 -4.26062
upperneck 1.67704 -6.55532 3.83389
head -0.123541 -3.31888 2.02022
rclavicle -2.14687e-014 1.63003e-014
rhumerus 31.3997 4.27082 -77.9795
rradius 124.067
rwrist 13.9558
rhand 17.5738 -3.97121
rfingers 7.12502
rthumb 42.2686 -28.4706
lclavicle -2.14687e-014 1.63003e-014
lhumerus 39.7705 -15.388 73.4022
lradius 125.703
lwrist -12.1508
lhand 19.8784 38.8367
lfingers 7.12502
lthumb 44.4217 62.5605
rfemur -32.4726 1.86986 11.9437
rtibia 46.351
rfoot -17.4086 -14.046
rtoes -15.8352
lfemur -27.2648 10.1313 -27.1204
ltibia 43.6356
lfoot -24.778 14.4376
ltoes -7.0776
2874
root 0.747715 17.2763 -1.38719 4.55422 -13.0695 4.5531
lowerback 16.6317 3.08293 -1.06008
upperback 10.2077 3.79082 -1.0949
thorax 1.58357 1.85413 -1.11478
lowerneck 5.4744 -4.67786 -4.41363
upperneck 1.7372 -6.45535 3.87239
head -0.100499 -3.27017 2.05709
rclavicle 1.82882e-014 5.96354e-015
rhumerus 31.5563 4.40107 -77.9633
rradius 123.903
rwrist 15.8237
rhand 19.34 -5.07251
rfingers 7.12502
rthumb 43.9197 -28.9853
lclavicle 1.82882e-014 5.96354e-015
lhumerus 40.0388 -15.3065 73.2779
lradius 125.535
lwrist -12.8918
lhand 20.1052 39.3175
lfingers 7.12502
lthumb 44.633 62.9601
rfemur -32.6083 1.87035 11.9583
rtibia 46.9063
rfoot -17.6063 -14.0662
rtoes -15.5531
lfemur -27.4022 10.1206 -27.0888
ltibia 44.2029
lfoot -25.0389 14.4589
ltoes -7.14048
2875
root 0.747168 17.243 -1.39807 4.25855 -13.0694 4.60932
lowerback 16.8734 3.07674 -1.19387
upperback 10.2446 3.75806 -1.07687
thorax 1.48865 1.83071 -1.02832
lowerneck 5.67274 -4.62338 -4.51976
upperneck 1.62673 -6.39446 3.88158
head -0.167934 -3.24187 2.08691
rclavicle 2.46493e-014 -2.34566e-014
rhumerus 31.5658 4.50324 -77.9372
rradius 123.757
rwrist 17.6913
rhand 21.0112 -6.0009
rfingers 7.12502
rthumb 45.4759 -29.3105
lclavicle 2.46493e-014 -2.34566e-014
lhumerus 40.229 -15.3235 73.1717
lradius 125.473
lwrist -13.5551
lhand 20.4014 39.7034
lfingers 7.12502
lthumb 44.9088 63.2388
rfemur -32.6786 1.84799 11.9226
rtibia 47.5057
rfoot -17.8167 -14.0803
rtoes -15.908
lfemur -27.4267 10.117 -27.1047
ltibia 44.7698
lfoot -25.2644 14.4913
ltoes -7.3471
2876
root 0.746543 17.2109 -1.40543 3.93181 -13.053 4.65718
lowerback 17.0238 3.12403 -1.18073
upperback 10.387 3.81772 -1.12431
thorax 1.5703 1.86238 -1.09799
lowerneck 5.80197 -4.66714 -4.46942
upperneck 1.4267 -6.45055 4.00004
head -0.247983 -3.27153 2.12544
rclavicle 3.10104e-014 -1.98785e-015
rhumerus 31.4904 4.36022 -77.9799
rradius 123.751
rwrist 19.2964
rhand 22.5797 -6.7875
rfingers 7.12502
rthumb 46.9302 -29.4844
lclavicle 3.10104e-014 -1.98785e-015
lhumerus 40.5943 -15.6145 72.945
lradius 125.579
lwrist -14.0004
lhand 20.7286 40.0257
lfingers 7.12502
lthumb 45.2132 63.4408
rfemur -32.6889 1.80821 11.8949
rtibia 48.1205
rfoot -18.1036 -14.0233
rtoes -15.7907
lfemur -27.3911 10.1575 -27.1152
ltibia 45.323
lfoot -25.3475 14.5643
ltoes -7.81144
2877
root 0.745812 17.1769 -1.41189 3.55275 -13.0431 4.68467
lowerback 17.1731 3.16618 -1.1313
upperback 10.5955 3.87609 -1.15759
thorax 1.72603 1.89457 -1.17073
lowerneck 5.89983 -4.70645 -4.57089
upperneck 1.17195 -6.50742 4.23822
head -0.33143 -3.30346 2.2303
rclavicle -3.97569e-016 2.82274e-014
rhumerus 31.3702 4.23681 -77.9932
rradius 123.828
rwrist 20.4015
rhand 23.8779 -7.46423
rfingers 7.12502
rthumb 48.129 -29.6166
lclavicle -3.97569e-016 2.82274e-014
lhumerus 40.8645 -15.9037 72.7204
lradius 125.802
lwrist -14.3245
lhand 21.0107 40.1785
lfingers 7.12502
lthumb 45.4754 63.4883
rfemur -32.6284 1.77487 11.8943
rtibia 48.7329
rfoot -18.4118 -13.9316
rtoes -15.4056
lfemur -27.2978 10.2064 -27.0879
ltibia 45.8592
lfoot -25.5026 14.6739
ltoes -8.39561
2878
root 0.742697 17.1429 -1.41736 3.10133 -13.0333 4.79866
lowerback 17.3349 3.13455 -1.35932
upperback 10.817 3.80024 -1.11369
thorax 1.86482 1.84298 -0.987699
lowerneck 6.05066 -4.6156 -4.886
upperneck 0.916766 -6.40784 4.37022
head -0.428889 -3.25734 2.33925
rclavicle -4.81059e-014 4.17448e-014
rhumerus 31.2506 4.46894 -77.9998
rradius 123.963
rwrist 20.9102
rhand 25.2289 -8.25395
rfingers 7.12502
rthumb 49.3712 -29.8007
lclavicle -4.81059e-014 4.17448e-014
lhumerus 40.776 -15.8661 72.603
lradius 126.088
lwrist -14.5757
lhand 21.3069 40.3167
lfingers 7.12502
lthumb 45.7505 63.5144
rfemur -32.5078 1.72397 11.8121
rtibia 49.3172
rfoot -18.6493 -13.8973
rtoes -15.4807
lfemur -27.1365 10.3063 -27.1356
ltibia 46.3811
lfoot -25.7335 14.687
ltoes -8.91747
2879
root 0.738451 17.1084 -1.4215 2.68776 -13.0232 4.88616
lowerback 17.4942 3.11699 -1.55057
upperback 11.0182 3.74728 -1.08751
thorax 1.9881 1.80472 -0.847653
lowerneck 6.12441 -4.54876 -5.01442
upperneck 0.793772 -6.32864 4.35606
head -0.48111 -3.21836 2.36191
rclavicle -1.63003e-014 2.22639e-014
rhumerus 30.9696 4.64069 -78.1204
rradius 124.199
rwrist 20.961
rhand 26.5313 -8.7414
rfingers 7.12502
rthumb 50.5633 -29.6633
lclavicle -1.63003e-014 2.22639e-014
lhumerus 40.5801 -15.9495 72.4838
lradius 126.482
lwrist -14.5767
lhand 21.6371 40.4085
lfingers 7.12502
lthumb 46.057 63.4793
rfemur -32.406 1.67807 11.7589
rtibia 49.8686
rfoot -18.8071 -13.9256
rtoes -15.8197
lfemur -27.0067 10.4656 -27.1553
ltibia 46.9003
lfoot -25.9112 14.6225
ltoes -9.19931
2880
root 0.735674 17.0774 -1.42298 2.3592 -13.0343 4.83843
lowerback 17.6177 3.14892 -1.51229
upperback 11.1938 3.79113 -1.08434
thorax 2.11882 1.82744 -0.873512
lowerneck 6.21907 -4.58234 -4.94532
upperneck 0.661596 -6.37008 4.32855
head -0.540083 -3.23904 2.34731
rclavicle -5.52621e-014 1.43125e-014
rhumerus 30.4568 4.61566 -78.3039
rradius 124.513
rwrist 20.6504
rhand 27.6598 -8.79804
rfingers 7.12502
rthumb 51.5912 -29.1434
lclavicle -5.52621e-014 1.43125e-014
lhumerus 40.3289 -16.3187 72.3733
lradius 127.014
lwrist -14.1797
lhand 21.9759 40.5335
lfingers 7.12502
lthumb 46.3712 63.4719
rfemur -32.311 1.64837 11.8438
rtibia 50.365
rfoot -19.0359 -13.8619
rtoes -15.7438
lfemur -26.9394 10.6597 -27.0412
ltibia 47.4044
lfoot -26.0136 14.5992
ltoes -9.55827
2881
root 0.732703 17.0501 -1.42312 1.98602 -13.0321 4.78884
lowerback 17.8254 3.17019 -1.51835
upperback 11.3606 3.81205 -1.04502
thorax 2.19181 1.83513 -0.837946
lowerneck 6.36306 -4.59596 -4.94594
upperneck 0.468602 -6.39058 4.32464
head -0.625207 -3.24999 2.35595
rclavicle -5.56597e-015 6.36111e-015
rhumerus 29.7785 4.69788 -78.4876
rradius 124.897
rwrist 19.8664
rhand 28.7272 -8.77026
rfingers 7.12502
rthumb 52.5591 -28.5379
lclavicle -5.56597e-015 6.36111e-015
lhumerus 39.874 -16.7139 72.3017
lradius 127.663
lwrist -13.574
lhand 22.147 40.6757
lfingers 7.12502
lthumb 46.5296 63.5464
rfemur -32.1441 1.58591 11.9375
rtibia 50.8155
rfoot -19.2537 -13.7944
rtoes -15.7488
lfemur -26.7729 10.8167 -26.9032
ltibia 47.8717
lfoot -26.2378 14.4302
ltoes -9.19911
2882
root 0.728371 17.0211 -1.41871 1.64276 -12.9902 4.92555
lowerback 17.9445 3.19417 -1.69179
upperback 11.5169 3.81638 -1.05534
thorax 2.29244 1.82754 -0.754241
lowerneck 6.41242 -4.58509 -5.05432
upperneck 0.423258 -6.38378 4.43382
head -0.641959 -3.2486 2.41393
rclavicle 1.47101e-014 -1.90833e-014
rhumerus 29.0288 4.78694 -78.6696
rradius 125.329
rwrist 18.5854
rhand 29.7398 -8.7494
rfingers 7.12502
rthumb 53.4729 -27.9377
lclavicle 1.47101e-014 -1.90833e-014
lhumerus 39.2587 -17.1041 72.2525
lradius 128.366
lwrist -12.7706
lhand 22.2192 40.6691
lfingers 7.12502
lthumb 46.5966 63.511
rfemur -32.0209 1.47923 11.7987
rtibia 51.2295
rfoot -19.3098 -13.8336
rtoes -16.8815
lfemur -26.6198 10.9263 -26.9777
ltibia 48.284
lfoot -26.4473 14.2866
ltoes -9.08848
2883
root 0.723356 16.9971 -1.41416 1.43361 -12.9112 5.0118
lowerback 18.0046 3.20172 -1.8679
upperback 11.6089 3.80081 -1.0176
thorax 2.34922 1.80821 -0.614282
lowerneck 6.38839 -4.56348 -5.16458
upperneck 0.516996 -6.36317 4.46996
head -0.604693 -3.23891 2.44224
rclavicle 3.29983e-014 -1.78906e-014
rhumerus 28.1378 4.94154 -78.7917
rradius 125.837
rwrist 17.1447
rhand 30.6821 -8.67681
rfingers 7.12502
rthumb 54.3191 -27.2968
lclavicle 3.29983e-014 -1.78906e-014
lhumerus 38.4398 -17.4477 72.3357
lradius 129.102
lwrist -11.8505
lhand 22.461 40.4927
lfingers 7.12502
lthumb 46.8204 63.2376
rfemur -32.0015 1.39189 11.7072
rtibia 51.6075
rfoot -19.3901 -13.8702
rtoes -17.7931
lfemur -26.5828 10.9901 -27.0144
ltibia 48.6438
lfoot -26.5774 14.1126
ltoes -9.05173
2884
root 0.719983 16.9795 -1.41182 1.266 -12.8193 4.93354
lowerback 18.124 3.18339 -1.89583
upperback 11.6747 3.7698 -0.923941
thorax 2.35203 1.78719 -0.499571
lowerneck 6.42461 -4.5578 -5.1661
upperneck 0.563931 -6.35938 4.3342
head -0.600273 -3.23538 2.39794
rclavicle 2.66371e-014 -1.03368e-014
rhumerus 27.0938 5.27079 -78.8424
rradius 126.41
rwrist 16.0404
rhand 31.2638 -8.4891
rfingers 7.12502
rthumb 54.8394 -26.7433
lclavicle 2.66371e-014 -1.03368e-014
lhumerus 37.4518 -17.8738 72.514
lradius 129.838
lwrist -10.8276
lhand 22.279 40.2044
lfingers 7.12502
lthumb 46.6519 63.0225
rfemur -31.9557 1.27511 11.8327
rtibia 51.965
rfoot -19.6912 -13.7874
rtoes -17.1805
lfemur -26.5473 11.0346 -26.8745
ltibia 48.9573
lfoot -26.691 13.9216
ltoes -8.68164
